<?xml version="1.0" encoding="UTF-8" standalone="no"?>
<svg
   viewBox="0 0 769.68214 187.11887"
   height="187.11887"
   width="769.68213"
   xml:space="preserve"
   id="svg2"
   version="1.1"
   xmlns="http://www.w3.org/2000/svg"
   xmlns:svg="http://www.w3.org/2000/svg"
   xmlns:rdf="http://www.w3.org/1999/02/22-rdf-syntax-ns#"
   xmlns:cc="http://creativecommons.org/ns#"
   xmlns:dc="http://purl.org/dc/elements/1.1/"><metadata
     id="metadata8"><rdf:RDF><cc:Work
         rdf:about=""><dc:format>image/svg+xml</dc:format><dc:type
           rdf:resource="http://purl.org/dc/dcmitype/StillImage" /></cc:Work></rdf:RDF></metadata><defs
     id="defs6"><clipPath
       id="clipPath18"
       clipPathUnits="userSpaceOnUse"><path
         id="path16"
         d="M 0,502.468 H 1064.05 V 0 H 0 Z" /></clipPath></defs><g
     transform="matrix(1.3333333,0,0,-1.3333333,-352.29211,435.91619)"
     id="g10"><g
       id="g12"><g
         clip-path="url(#clipPath18)"
         id="g14"><g
           transform="translate(451.0543,318.8099)"
           id="g20"><path
             id="path22"
             style="fill:#ff4de9;fill-opacity:1;fill-rule:nonzero;stroke:none"
             d="m 0,0 v -18.935 h 10.837 c 1.508,0 2.891,0.205 4.148,0.615 1.256,0.411 2.342,1.013 3.255,1.807 0.913,0.794 1.628,1.786 2.144,2.977 0.516,1.191 0.774,2.567 0.774,4.128 0,2.964 -0.9,5.273 -2.699,6.927 C 16.658,-0.827 13.788,0 9.845,0 Z m -13.497,6.867 h 24.334 c 2.699,0 5.18,-0.35 7.443,-1.052 2.263,-0.701 4.221,-1.733 5.875,-3.096 1.653,-1.363 2.937,-3.063 3.85,-5.101 0.913,-2.037 1.37,-4.38 1.37,-7.026 0,-2.196 -0.451,-4.267 -1.35,-6.212 -0.9,-1.945 -2.17,-3.646 -3.811,-5.101 -1.641,-1.456 -3.606,-2.607 -5.894,-3.454 -2.29,-0.847 -4.838,-1.27 -7.642,-1.27 H 0 v -21.039 h 6.034 v -6.827 h -19.531 v 6.827 H -7.78 V 0 h -5.717 z" /></g><g
           transform="translate(515.9171,297.93)"
           id="g24"><path
             id="path26"
             style="fill:#ff4de9;fill-opacity:1;fill-rule:nonzero;stroke:none"
             d="m 0,0 h -7.542 v 2.541 c -0.873,0 -1.767,-0.166 -2.68,-0.497 -0.913,-0.33 -1.766,-0.833 -2.56,-1.508 -0.794,-0.675 -1.489,-1.535 -2.084,-2.58 -0.595,-1.046 -1.027,-2.283 -1.29,-3.712 v -19.848 h 6.986 v -6.827 h -20.403 v 6.827 h 5.676 l 0.04,27.47 h -5.716 v 6.827 h 13.139 V 3.017 c 0.476,0.847 1.012,1.634 1.608,2.362 0.595,0.728 1.256,1.363 1.984,1.905 0.728,0.543 1.534,0.966 2.422,1.27 0.886,0.305 1.846,0.457 2.878,0.457 h 3.89 c 1.216,0 2.435,-0.027 3.652,-0.079 z" /></g><g
           transform="translate(528.6992,321.1917)"
           id="g28"><path
             id="path30"
             style="fill:#ff4de9;fill-opacity:1;fill-rule:nonzero;stroke:none"
             d="M 0,0 C 0,0.688 0.139,1.343 0.417,1.965 0.695,2.587 1.065,3.129 1.528,3.592 1.99,4.056 2.541,4.426 3.176,4.704 3.811,4.982 4.486,5.121 5.2,5.121 5.888,5.121 6.543,4.982 7.165,4.704 7.786,4.426 8.329,4.056 8.793,3.592 9.255,3.129 9.626,2.587 9.904,1.965 10.182,1.343 10.321,0.688 10.321,0 10.321,-0.715 10.182,-1.389 9.904,-2.024 9.626,-2.66 9.255,-3.222 8.793,-3.712 8.329,-4.201 7.786,-4.585 7.165,-4.863 6.543,-5.141 5.888,-5.28 5.2,-5.28 4.486,-5.28 3.811,-5.141 3.176,-4.863 2.541,-4.585 1.99,-4.201 1.528,-3.712 1.065,-3.222 0.695,-2.66 0.417,-2.024 0.139,-1.389 0,-0.715 0,0 M -4.565,-14.568 H 8.852 v -34.297 h 6.193 v -6.828 H -4.486 v 6.828 h 5.875 v 27.469 h -5.954 z" /></g><g
           transform="translate(577.6042,272.3262)"
           id="g32"><path
             id="path34"
             style="fill:#ff4de9;fill-opacity:1;fill-rule:nonzero;stroke:none"
             d="m 0,0 h 5.796 v 18.776 c 0,3.149 -0.801,5.538 -2.402,7.165 -1.601,1.628 -3.897,2.441 -6.887,2.441 -1.721,0 -3.454,-0.41 -5.2,-1.23 -1.747,-0.821 -3.401,-1.839 -4.962,-3.057 V 0 H -7.86 V -6.828 H -27.072 V 0 h 5.716 v 27.469 h -5.716 v 6.828 h 13.099 v -4.843 h 0.08 c 0.873,0.768 1.806,1.495 2.798,2.183 0.992,0.689 2.03,1.284 3.116,1.787 1.085,0.503 2.217,0.9 3.394,1.191 1.177,0.291 2.415,0.436 3.712,0.436 2.196,0 4.181,-0.304 5.954,-0.913 1.773,-0.608 3.282,-1.535 4.525,-2.778 1.244,-1.244 2.204,-2.839 2.878,-4.784 0.675,-1.945 1.013,-4.241 1.013,-6.887 V 0 h 5.716 V -6.828 H 0 Z" /></g><g
           transform="translate(634.4485,295.6673)"
           id="g36"><path
             id="path38"
             style="fill:#ff4de9;fill-opacity:1;fill-rule:nonzero;stroke:none"
             d="m 0,0 c -1.111,1.985 -2.521,3.44 -4.228,4.367 -1.707,0.926 -3.685,1.389 -5.934,1.389 -1.72,0 -3.335,-0.357 -4.843,-1.072 -1.508,-0.714 -2.825,-1.733 -3.95,-3.056 -1.124,-1.324 -2.011,-2.931 -2.659,-4.823 -0.649,-1.893 -0.973,-4.003 -0.973,-6.332 0,-2.302 0.324,-4.38 0.973,-6.232 0.648,-1.853 1.541,-3.434 2.679,-4.744 1.138,-1.31 2.455,-2.315 3.95,-3.017 1.495,-0.701 3.103,-1.052 4.823,-1.052 2.54,0 4.75,0.616 6.629,1.846 1.879,1.231 3.374,3.037 4.486,5.419 l 6.113,-3.017 c -0.794,-1.694 -1.773,-3.216 -2.938,-4.565 -1.164,-1.35 -2.481,-2.501 -3.949,-3.454 -1.469,-0.952 -3.083,-1.687 -4.843,-2.203 -1.76,-0.516 -3.619,-0.774 -5.578,-0.774 -2.858,0 -5.497,0.536 -7.919,1.608 -2.421,1.072 -4.512,2.573 -6.272,4.505 -1.76,1.932 -3.129,4.234 -4.108,6.907 -0.979,2.673 -1.469,5.597 -1.469,8.773 0,3.176 0.516,6.1 1.548,8.773 1.032,2.673 2.448,4.968 4.248,6.887 1.799,1.919 3.903,3.42 6.311,4.505 2.408,1.085 4.989,1.628 7.741,1.628 2.593,0 5.048,-0.45 7.363,-1.35 2.316,-0.899 4.347,-2.262 6.094,-4.088 H 7.463 V 0 Z" /></g><g
           transform="translate(667.6739,301.5026)"
           id="g40"><path
             id="path42"
             style="fill:#ff4de9;fill-opacity:1;fill-rule:nonzero;stroke:none"
             d="m 0,0 c -1.72,0 -3.222,-0.245 -4.505,-0.734 -1.284,-0.49 -2.376,-1.191 -3.275,-2.104 -0.9,-0.913 -1.621,-2.031 -2.164,-3.355 -0.542,-1.323 -0.946,-2.805 -1.21,-4.445 H 10.162 C 10.056,-9.104 9.811,-7.688 9.428,-6.391 9.044,-5.094 8.455,-3.97 7.661,-3.017 6.867,-2.064 5.849,-1.323 4.605,-0.794 3.361,-0.265 1.826,0 0,0 m -11.551,-16.394 c 0,-1.165 0.086,-2.23 0.258,-3.196 0.172,-0.966 0.416,-1.885 0.734,-2.759 0.979,-2.646 2.547,-4.637 4.704,-5.974 2.157,-1.336 4.598,-2.005 7.324,-2.005 2.143,0 4.227,0.298 6.252,0.894 2.024,0.595 4.148,1.528 6.371,2.798 l 2.977,-5.041 c -2.699,-1.853 -5.412,-3.229 -8.137,-4.129 -2.726,-0.899 -5.558,-1.349 -8.495,-1.349 -2.779,0 -5.353,0.463 -7.721,1.389 -2.369,0.926 -4.406,2.302 -6.113,4.128 -1.707,1.827 -3.044,4.102 -4.01,6.828 -0.965,2.726 -1.448,5.902 -1.448,9.527 0,2.938 0.41,5.71 1.23,8.316 0.82,2.607 2.044,4.883 3.672,6.828 1.627,1.945 3.645,3.487 6.054,4.625 2.408,1.138 5.213,1.707 8.415,1.707 3.096,0 5.683,-0.47 7.761,-1.41 2.077,-0.939 3.771,-2.183 5.081,-3.731 1.31,-1.548 2.302,-3.315 2.977,-5.299 0.675,-1.985 1.144,-4.01 1.409,-6.074 0.132,-1.006 0.218,-2.024 0.258,-3.056 0.04,-1.033 0.06,-2.038 0.06,-3.017 z" /></g><g
           transform="translate(718.7424,298.4262)"
           id="g44"><path
             id="path46"
             style="fill:#ff4de9;fill-opacity:1;fill-rule:nonzero;stroke:none"
             d="m 0,0 c -0.516,0.781 -1.184,1.416 -2.005,1.905 -0.82,0.49 -1.733,0.847 -2.739,1.072 -1.005,0.225 -1.984,0.338 -2.937,0.338 -1.059,0 -2.031,-0.12 -2.918,-0.358 -0.886,-0.238 -1.647,-0.582 -2.282,-1.032 -0.635,-0.45 -1.132,-0.999 -1.489,-1.647 -0.357,-0.649 -0.536,-1.37 -0.536,-2.164 0,-1.376 0.417,-2.467 1.251,-3.274 0.833,-0.808 2.229,-1.555 4.188,-2.243 l 7.899,-2.779 c 3.387,-1.138 5.862,-2.686 7.423,-4.644 1.562,-1.959 2.342,-4.301 2.342,-7.027 0,-1.826 -0.364,-3.499 -1.091,-5.021 -0.728,-1.522 -1.76,-2.818 -3.097,-3.89 -1.336,-1.072 -2.944,-1.906 -4.823,-2.501 -1.879,-0.595 -3.969,-0.893 -6.272,-0.893 -3.202,0 -5.808,0.516 -7.82,1.548 -2.011,1.032 -3.559,2.395 -4.644,4.089 h -4.128 v 6.827 h 8.217 c 0,-1.138 0.244,-2.11 0.734,-2.917 0.489,-0.808 1.138,-1.462 1.945,-1.965 0.807,-0.503 1.72,-0.874 2.739,-1.112 1.019,-0.238 2.058,-0.357 3.116,-0.357 1.032,0 2.025,0.126 2.977,0.377 0.953,0.251 1.793,0.622 2.521,1.112 0.728,0.489 1.303,1.078 1.727,1.766 0.423,0.688 0.635,1.469 0.635,2.342 0,1.323 -0.43,2.448 -1.29,3.374 -0.86,0.926 -2.322,1.76 -4.387,2.501 l -7.859,2.938 c -3.202,1.137 -5.578,2.586 -7.126,4.346 -1.548,1.76 -2.322,3.963 -2.322,6.61 0,1.746 0.324,3.36 0.973,4.842 0.648,1.482 1.587,2.759 2.818,3.831 1.231,1.072 2.732,1.912 4.505,2.521 1.773,0.608 3.798,0.913 6.074,0.913 2.937,0 5.399,-0.41 7.383,-1.231 C 1.687,7.377 3.473,5.974 5.061,3.989 H 8.912 V -2.838 H 0.774 C 0.774,-1.727 0.516,-0.781 0,0" /></g><g
           transform="translate(749.3677,270.5399)"
           id="g48"><path
             id="path50"
             style="fill:#ff4de9;fill-opacity:1;fill-rule:nonzero;stroke:none"
             d="M 0,0 C 0.979,0 1.958,0.119 2.938,0.357 3.917,0.595 4.843,0.92 5.716,1.33 6.59,1.74 7.397,2.216 8.138,2.759 8.879,3.301 9.501,3.864 10.003,4.446 l 0.04,9.289 H 1.469 c -1.429,0 -2.733,-0.159 -3.91,-0.477 -1.178,-0.317 -2.197,-0.78 -3.057,-1.389 C -6.358,11.26 -7.026,10.506 -7.503,9.606 -7.979,8.707 -8.217,7.674 -8.217,6.51 -8.217,5.425 -8.018,4.479 -7.622,3.672 -7.225,2.865 -6.662,2.19 -5.935,1.647 -5.207,1.105 -4.34,0.695 -3.334,0.417 -2.329,0.139 -1.217,0 0,0 m 10.003,-1.231 c -1.561,-1.455 -3.288,-2.646 -5.18,-3.572 -1.892,-0.926 -4.042,-1.39 -6.451,-1.39 -2.011,0 -3.857,0.318 -5.537,0.953 -1.681,0.635 -3.129,1.502 -4.347,2.6 -1.217,1.098 -2.163,2.375 -2.838,3.831 -0.675,1.455 -1.012,3.004 -1.012,4.644 0,1.747 0.258,3.295 0.774,4.645 0.516,1.349 1.204,2.52 2.064,3.513 0.86,0.992 1.866,1.826 3.017,2.501 1.151,0.674 2.355,1.217 3.612,1.627 1.257,0.41 2.541,0.701 3.851,0.873 1.31,0.172 2.56,0.258 3.751,0.258 1.905,0 3.506,-0.059 4.803,-0.178 1.297,-0.119 2.474,-0.285 3.533,-0.496 l 0.04,3.374 c 0,1.455 -0.212,2.719 -0.635,3.791 -0.424,1.071 -1.019,1.958 -1.787,2.659 -0.767,0.702 -1.687,1.224 -2.759,1.568 -1.071,0.344 -2.269,0.516 -3.592,0.516 -1.244,0 -2.435,-0.086 -3.573,-0.258 -1.138,-0.172 -2.203,-0.397 -3.195,-0.675 -0.993,-0.277 -1.906,-0.595 -2.739,-0.952 -0.834,-0.358 -1.542,-0.735 -2.124,-1.132 l -2.421,5.121 c 0.979,0.635 2.051,1.224 3.215,1.767 1.164,0.542 2.388,1.005 3.672,1.389 1.283,0.384 2.593,0.688 3.93,0.913 1.336,0.225 2.653,0.337 3.949,0.337 2.382,0 4.526,-0.284 6.431,-0.853 1.906,-0.569 3.52,-1.449 4.843,-2.64 1.323,-1.191 2.342,-2.706 3.057,-4.545 0.714,-1.839 1.071,-4.042 1.071,-6.609 L 17.387,1.786 h 4.565 V -5.041 H 10.003 Z" /></g><g
           transform="translate(802.6195,298.4262)"
           id="g52"><path
             id="path54"
             style="fill:#ff4de9;fill-opacity:1;fill-rule:nonzero;stroke:none"
             d="m 0,0 c -0.516,0.781 -1.184,1.416 -2.005,1.905 -0.82,0.49 -1.733,0.847 -2.739,1.072 -1.005,0.225 -1.984,0.338 -2.937,0.338 -1.059,0 -2.031,-0.12 -2.918,-0.358 -0.886,-0.238 -1.647,-0.582 -2.282,-1.032 -0.635,-0.45 -1.132,-0.999 -1.489,-1.647 -0.357,-0.649 -0.536,-1.37 -0.536,-2.164 0,-1.376 0.417,-2.467 1.251,-3.274 0.833,-0.808 2.229,-1.555 4.188,-2.243 l 7.899,-2.779 c 3.387,-1.138 5.862,-2.686 7.423,-4.644 1.562,-1.959 2.342,-4.301 2.342,-7.027 0,-1.826 -0.364,-3.499 -1.091,-5.021 -0.728,-1.522 -1.76,-2.818 -3.097,-3.89 -1.336,-1.072 -2.944,-1.906 -4.823,-2.501 -1.879,-0.595 -3.969,-0.893 -6.272,-0.893 -3.202,0 -5.808,0.516 -7.82,1.548 -2.011,1.032 -3.559,2.395 -4.644,4.089 h -4.128 v 6.827 h 8.217 c 0,-1.138 0.244,-2.11 0.734,-2.917 0.489,-0.808 1.138,-1.462 1.945,-1.965 0.807,-0.503 1.72,-0.874 2.739,-1.112 1.019,-0.238 2.058,-0.357 3.116,-0.357 1.032,0 2.025,0.126 2.977,0.377 0.953,0.251 1.793,0.622 2.521,1.112 0.728,0.489 1.303,1.078 1.727,1.766 0.423,0.688 0.635,1.469 0.635,2.342 0,1.323 -0.43,2.448 -1.29,3.374 -0.86,0.926 -2.322,1.76 -4.387,2.501 l -7.859,2.938 c -3.202,1.137 -5.578,2.586 -7.126,4.346 -1.548,1.76 -2.322,3.963 -2.322,6.61 0,1.746 0.324,3.36 0.973,4.842 0.648,1.482 1.587,2.759 2.818,3.831 1.231,1.072 2.732,1.912 4.505,2.521 1.773,0.608 3.798,0.913 6.074,0.913 2.937,0 5.399,-0.41 7.383,-1.231 C 1.687,7.377 3.473,5.974 5.061,3.989 H 8.912 V -2.838 H 0.774 C 0.774,-1.727 0.516,-0.781 0,0" /></g><g
           transform="translate(485.2906,187.6067)"
           id="g56"><path
             id="path58"
             style="fill:#b31cff;fill-opacity:1;fill-rule:nonzero;stroke:none"
             d="M 0,0 V 12.067 C -1.007,9.977 -2.263,8.157 -3.771,6.609 -5.28,5.061 -6.961,3.784 -8.812,2.779 c -1.853,-1.006 -3.831,-1.76 -5.935,-2.263 -2.104,-0.503 -4.242,-0.754 -6.411,-0.754 -3.916,0 -7.529,0.655 -10.837,1.965 -3.309,1.31 -6.306,3.394 -8.991,6.252 -2.686,2.858 -4.738,6.245 -6.153,10.162 -1.416,3.917 -2.123,8.005 -2.123,12.266 0,4.287 0.707,8.336 2.123,12.147 1.415,3.811 3.4,7.132 5.955,9.963 2.553,2.832 5.597,5.055 9.13,6.669 3.533,1.615 7.363,2.422 11.492,2.422 3.81,0 7.085,-0.543 9.824,-1.628 2.739,-1.085 5.081,-2.401 7.026,-3.949 1.946,-1.549 3.499,-3.024 4.665,-4.427 h 3.85 v -7.065 h -8.534 c -1.773,3.016 -4.123,5.398 -7.046,7.145 -2.925,1.746 -6.2,2.593 -9.825,2.54 -3.043,0 -5.835,-0.648 -8.376,-1.945 -2.54,-1.296 -4.718,-3.043 -6.53,-5.24 -1.813,-2.196 -3.222,-4.723 -4.227,-7.581 -1.007,-2.859 -1.509,-5.875 -1.509,-9.051 0,-3.52 0.556,-6.788 1.667,-9.805 1.112,-3.017 2.527,-5.465 4.248,-7.344 1.72,-1.879 3.844,-3.433 6.371,-4.664 2.526,-1.23 5.325,-1.846 8.396,-1.846 5.081,0 9.249,1.237 12.504,3.712 3.255,2.474 5.531,6.331 6.827,11.571 h -16.831 v 6.828 H 7.383 V 0 Z" /></g><g
           transform="translate(528.7178,228.9697)"
           id="g60"><path
             id="path62"
             style="fill:#b31cff;fill-opacity:1;fill-rule:nonzero;stroke:none"
             d="m 0,0 h 13.258 v -34.297 h 4.565 v -6.828 H 5.835 v 3.811 c -1.852,-1.429 -3.87,-2.541 -6.053,-3.334 -2.184,-0.794 -4.52,-1.191 -7.007,-1.191 -2.064,0 -3.936,0.297 -5.617,0.893 -1.681,0.595 -3.11,1.522 -4.287,2.779 -1.177,1.257 -2.084,2.851 -2.719,4.783 -0.635,1.932 -0.953,4.234 -0.953,6.907 v 19.649 h -5.557 V 0 H -13.1 v -25.604 c 0,-3.149 0.728,-5.531 2.184,-7.145 1.454,-1.614 3.546,-2.421 6.272,-2.421 1.613,0 3.314,0.291 5.1,0.873 1.787,0.582 3.474,1.389 5.062,2.421 V -6.828 H 0 Z" /></g><g
           transform="translate(576.0748,223.8489)"
           id="g64"><path
             id="path66"
             style="fill:#b31cff;fill-opacity:1;fill-rule:nonzero;stroke:none"
             d="m 0,0 c -1.721,0 -3.222,-0.245 -4.505,-0.734 -1.285,-0.49 -2.377,-1.191 -3.275,-2.104 -0.9,-0.913 -1.622,-2.031 -2.164,-3.355 -0.542,-1.323 -0.947,-2.805 -1.211,-4.445 H 10.162 C 10.056,-9.104 9.81,-7.688 9.428,-6.391 9.044,-5.094 8.455,-3.97 7.661,-3.017 6.867,-2.064 5.849,-1.323 4.605,-0.794 3.36,-0.265 1.826,0 0,0 m -11.551,-16.394 c 0,-1.165 0.084,-2.23 0.258,-3.196 0.172,-0.966 0.416,-1.885 0.734,-2.759 0.978,-2.646 2.546,-4.637 4.704,-5.974 2.157,-1.336 4.598,-2.005 7.324,-2.005 2.143,0 4.227,0.298 6.252,0.894 2.024,0.595 4.148,1.528 6.371,2.798 l 2.977,-5.041 c -2.699,-1.853 -5.413,-3.229 -8.137,-4.129 -2.726,-0.899 -5.558,-1.349 -8.495,-1.349 -2.779,0 -5.354,0.463 -7.721,1.389 -2.369,0.926 -4.406,2.303 -6.113,4.129 -1.707,1.826 -3.044,4.101 -4.01,6.827 -0.967,2.726 -1.448,5.902 -1.448,9.527 0,2.938 0.41,5.71 1.23,8.316 0.819,2.607 2.044,4.883 3.672,6.828 1.627,1.945 3.645,3.487 6.054,4.625 2.407,1.138 5.213,1.707 8.415,1.707 3.096,0 5.682,-0.47 7.761,-1.41 2.077,-0.939 3.771,-2.183 5.081,-3.731 1.31,-1.548 2.302,-3.315 2.977,-5.299 0.675,-1.985 1.144,-4.01 1.409,-6.074 0.132,-1.006 0.218,-2.024 0.258,-3.056 0.04,-1.033 0.06,-2.038 0.06,-3.017 z" /></g><g
           transform="translate(633.7526,220.2763)"
           id="g68"><path
             id="path70"
             style="fill:#b31cff;fill-opacity:1;fill-rule:nonzero;stroke:none"
             d="m 0,0 h -7.542 v 2.541 c -0.873,0 -1.767,-0.166 -2.68,-0.497 -0.913,-0.33 -1.766,-0.833 -2.56,-1.508 -0.794,-0.675 -1.489,-1.535 -2.084,-2.58 -0.595,-1.046 -1.025,-2.283 -1.29,-3.712 v -19.848 h 6.986 v -6.827 h -20.403 v 6.827 h 5.676 l 0.04,27.47 h -5.716 v 6.827 h 13.139 V 3.017 c 0.476,0.847 1.012,1.634 1.608,2.362 0.595,0.728 1.257,1.363 1.984,1.905 0.728,0.543 1.535,0.966 2.422,1.27 0.886,0.305 1.846,0.457 2.878,0.457 h 3.89 c 1.217,0 2.435,-0.027 3.652,-0.079 z" /></g><g
           transform="translate(671.8605,220.2763)"
           id="g72"><path
             id="path74"
             style="fill:#b31cff;fill-opacity:1;fill-rule:nonzero;stroke:none"
             d="m 0,0 h -7.542 v 2.541 c -0.873,0 -1.767,-0.166 -2.68,-0.497 -0.913,-0.33 -1.766,-0.833 -2.56,-1.508 -0.794,-0.675 -1.489,-1.535 -2.084,-2.58 -0.595,-1.046 -1.025,-2.283 -1.29,-3.712 v -19.848 h 6.986 v -6.827 h -20.403 v 6.827 h 5.676 l 0.04,27.47 h -5.716 v 6.827 h 13.139 V 3.017 c 0.476,0.847 1.012,1.634 1.608,2.362 0.595,0.728 1.257,1.363 1.984,1.905 0.728,0.543 1.535,0.966 2.422,1.27 0.886,0.305 1.846,0.457 2.878,0.457 h 3.89 c 1.217,0 2.435,-0.027 3.652,-0.079 z" /></g><g
           transform="translate(698.933,223.8489)"
           id="g76"><path
             id="path78"
             style="fill:#b31cff;fill-opacity:1;fill-rule:nonzero;stroke:none"
             d="m 0,0 c -1.72,0 -3.222,-0.245 -4.505,-0.734 -1.284,-0.49 -2.376,-1.191 -3.275,-2.104 -0.9,-0.913 -1.621,-2.031 -2.164,-3.355 -0.542,-1.323 -0.946,-2.805 -1.21,-4.445 H 10.162 C 10.056,-9.104 9.811,-7.688 9.428,-6.391 9.044,-5.094 8.455,-3.97 7.661,-3.017 6.867,-2.064 5.849,-1.323 4.605,-0.794 3.361,-0.265 1.826,0 0,0 m -11.551,-16.394 c 0,-1.165 0.086,-2.23 0.258,-3.196 0.172,-0.966 0.416,-1.885 0.734,-2.759 0.979,-2.646 2.547,-4.637 4.704,-5.974 2.157,-1.336 4.598,-2.005 7.324,-2.005 2.143,0 4.227,0.298 6.252,0.894 2.024,0.595 4.148,1.528 6.371,2.798 l 2.977,-5.041 c -2.699,-1.853 -5.412,-3.229 -8.137,-4.129 -2.726,-0.899 -5.558,-1.349 -8.495,-1.349 -2.779,0 -5.353,0.463 -7.721,1.389 -2.369,0.926 -4.406,2.303 -6.113,4.129 -1.707,1.826 -3.044,4.101 -4.01,6.827 -0.965,2.726 -1.448,5.902 -1.448,9.527 0,2.938 0.41,5.71 1.23,8.316 0.82,2.607 2.044,4.883 3.672,6.828 1.627,1.945 3.645,3.487 6.054,4.625 2.408,1.138 5.213,1.707 8.415,1.707 3.096,0 5.683,-0.47 7.761,-1.41 2.077,-0.939 3.771,-2.183 5.081,-3.731 1.31,-1.548 2.302,-3.315 2.977,-5.299 0.675,-1.985 1.144,-4.01 1.409,-6.074 0.132,-1.006 0.218,-2.024 0.258,-3.056 0.04,-1.033 0.06,-2.038 0.06,-3.017 z" /></g><g
           transform="translate(756.6109,220.2763)"
           id="g80"><path
             id="path82"
             style="fill:#b31cff;fill-opacity:1;fill-rule:nonzero;stroke:none"
             d="m 0,0 h -7.542 v 2.541 c -0.873,0 -1.767,-0.166 -2.68,-0.497 -0.913,-0.33 -1.766,-0.833 -2.56,-1.508 -0.794,-0.675 -1.489,-1.535 -2.084,-2.58 -0.595,-1.046 -1.025,-2.283 -1.29,-3.712 v -19.848 h 6.986 v -6.827 h -20.403 v 6.827 h 5.676 l 0.04,27.47 h -5.716 v 6.827 h 13.139 V 3.017 c 0.476,0.847 1.012,1.634 1.608,2.362 0.595,0.728 1.257,1.363 1.984,1.905 0.728,0.543 1.535,0.966 2.422,1.27 0.886,0.305 1.846,0.457 2.878,0.457 h 3.89 c 1.217,0 2.435,-0.027 3.652,-0.079 z" /></g><g
           transform="translate(779.3169,192.8862)"
           id="g84"><path
             id="path86"
             style="fill:#b31cff;fill-opacity:1;fill-rule:nonzero;stroke:none"
             d="M 0,0 C 0.979,0 1.958,0.119 2.938,0.357 3.917,0.595 4.843,0.92 5.716,1.33 6.589,1.74 7.397,2.216 8.138,2.759 8.879,3.301 9.5,3.864 10.003,4.446 l 0.04,9.289 H 1.469 c -1.429,0 -2.733,-0.159 -3.91,-0.477 -1.178,-0.317 -2.197,-0.78 -3.057,-1.389 C -6.358,11.26 -7.026,10.506 -7.503,9.606 -7.979,8.707 -8.217,7.675 -8.217,6.51 -8.217,5.425 -8.019,4.479 -7.622,3.672 -7.225,2.865 -6.662,2.19 -5.935,1.647 -5.207,1.105 -4.34,0.695 -3.334,0.417 -2.329,0.139 -1.217,0 0,0 m 10.003,-1.231 c -1.561,-1.455 -3.288,-2.646 -5.18,-3.572 -1.892,-0.926 -4.042,-1.39 -6.451,-1.39 -2.011,0 -3.857,0.318 -5.537,0.953 -1.681,0.635 -3.129,1.502 -4.347,2.6 -1.217,1.098 -2.163,2.375 -2.838,3.831 -0.675,1.455 -1.012,3.004 -1.012,4.644 0,1.747 0.258,3.295 0.774,4.645 0.516,1.349 1.204,2.52 2.064,3.513 0.86,0.992 1.866,1.826 3.017,2.501 1.151,0.674 2.355,1.217 3.612,1.627 1.257,0.41 2.541,0.701 3.851,0.873 1.31,0.172 2.56,0.258 3.751,0.258 1.905,0 3.506,-0.059 4.803,-0.178 1.297,-0.119 2.474,-0.285 3.533,-0.496 l 0.04,3.374 c 0,1.455 -0.212,2.719 -0.635,3.791 -0.424,1.071 -1.019,1.958 -1.787,2.659 -0.767,0.702 -1.687,1.224 -2.759,1.568 -1.071,0.344 -2.269,0.516 -3.592,0.516 -1.244,0 -2.435,-0.086 -3.573,-0.258 -1.138,-0.172 -2.203,-0.397 -3.195,-0.675 -0.993,-0.277 -1.906,-0.595 -2.739,-0.952 -0.834,-0.357 -1.542,-0.735 -2.124,-1.132 l -2.421,5.121 c 0.979,0.635 2.051,1.224 3.215,1.767 1.164,0.542 2.388,1.005 3.672,1.389 1.283,0.384 2.593,0.688 3.93,0.913 1.336,0.225 2.653,0.337 3.949,0.337 2.382,0 4.526,-0.284 6.431,-0.853 1.906,-0.569 3.52,-1.449 4.843,-2.64 1.323,-1.191 2.342,-2.706 3.057,-4.545 0.714,-1.839 1.071,-4.042 1.071,-6.609 L 17.387,1.786 h 4.565 V -5.041 H 10.003 Z" /></g><g
           transform="translate(832.5687,220.7725)"
           id="g88"><path
             id="path90"
             style="fill:#b31cff;fill-opacity:1;fill-rule:nonzero;stroke:none"
             d="m 0,0 c -0.516,0.781 -1.184,1.416 -2.005,1.905 -0.82,0.49 -1.733,0.847 -2.739,1.072 -1.005,0.225 -1.984,0.338 -2.937,0.338 -1.059,0 -2.031,-0.119 -2.918,-0.358 -0.886,-0.238 -1.647,-0.582 -2.282,-1.032 -0.635,-0.45 -1.132,-0.999 -1.489,-1.647 -0.357,-0.648 -0.536,-1.37 -0.536,-2.164 0,-1.376 0.417,-2.467 1.251,-3.274 0.833,-0.808 2.229,-1.555 4.188,-2.243 l 7.899,-2.779 c 3.387,-1.138 5.862,-2.686 7.423,-4.644 1.561,-1.959 2.342,-4.301 2.342,-7.026 0,-1.826 -0.364,-3.5 -1.091,-5.022 -0.728,-1.522 -1.76,-2.818 -3.097,-3.89 -1.336,-1.072 -2.944,-1.906 -4.823,-2.501 -1.879,-0.595 -3.969,-0.893 -6.272,-0.893 -3.202,0 -5.809,0.516 -7.82,1.548 -2.011,1.032 -3.559,2.395 -4.644,4.089 h -4.129 v 6.827 h 8.218 c 0,-1.138 0.244,-2.11 0.734,-2.917 0.489,-0.807 1.138,-1.462 1.945,-1.965 0.807,-0.503 1.72,-0.874 2.739,-1.112 1.019,-0.238 2.058,-0.357 3.116,-0.357 1.032,0 2.025,0.126 2.977,0.377 0.953,0.251 1.793,0.622 2.521,1.112 0.728,0.489 1.303,1.078 1.727,1.766 0.423,0.688 0.635,1.469 0.635,2.342 0,1.323 -0.43,2.448 -1.29,3.374 -0.86,0.926 -2.323,1.76 -4.387,2.501 l -7.859,2.938 c -3.203,1.137 -5.578,2.586 -7.126,4.346 -1.548,1.76 -2.322,3.963 -2.322,6.61 0,1.746 0.324,3.36 0.973,4.842 0.648,1.482 1.587,2.759 2.818,3.831 1.231,1.072 2.732,1.912 4.505,2.521 1.773,0.608 3.798,0.913 6.074,0.913 2.937,0 5.398,-0.41 7.383,-1.231 C 1.687,7.377 3.473,5.974 5.061,3.989 H 8.912 V -2.838 H 0.774 C 0.774,-1.727 0.516,-0.781 0,0" /></g><path
           id="path92"
           style="fill:#ff4de9;fill-opacity:1;fill-rule:nonzero;stroke:none"
           d="m 303.775,248.317 h 22.822 v -15.876 h -22.822 z m 28.715,10.716 h -1.069 c -0.044,0 -0.087,-0.002 -0.13,-0.003 -0.043,0.001 -0.086,0.003 -0.129,0.003 h -34.829 -0.496 c -0.95,0 -1.841,-0.248 -2.615,-0.681 -2.556,-1.178 -4.331,-3.761 -4.331,-6.761 V 194.04 c 0,-4.11 3.332,-7.442 7.442,-7.442 4.11,0 7.442,3.332 7.442,7.442 v 27.684 h 27.387 c 0.043,0 0.086,0.003 0.129,0.004 0.043,-0.002 0.086,-0.004 0.13,-0.004 h 1.069 c 2.664,0 4.824,2.16 4.824,4.824 v 27.662 c 0,2.664 -2.16,4.823 -4.824,4.823" /><g
           transform="translate(380.3544,258.6164)"
           id="g94"><path
             id="path96"
             style="fill:#b31cff;fill-opacity:1;fill-rule:nonzero;stroke:none"
             d="m 0,0 c -0.631,0.268 -1.325,0.417 -2.054,0.417 h -0.403 -33.346 c -2.901,0 -5.253,-2.352 -5.253,-5.253 v -0.21 c 0,-2.901 2.352,-5.253 5.253,-5.253 H -9.899 V -61.302 H -30.34 v 20.639 h 5.756 c 2.959,0 5.358,2.399 5.358,5.359 v 0 c 0,2.959 -2.399,5.358 -5.358,5.358 h -11.114 c -2.959,0 -5.358,-2.399 -5.358,-5.358 v 0 -31.251 -0.105 -0.105 c 0,-2.901 2.352,-5.253 5.253,-5.253 h 33.346 0.403 c 0.729,0 1.423,0.148 2.054,0.417 2.902,1.015 4.985,3.776 4.985,7.025 V -7.025 C 4.985,-3.776 2.902,-1.015 0,0" /></g><g
           transform="translate(386.6058,299.3084)"
           id="g98"><path
             id="path100"
             style="fill:#54b5ff;fill-opacity:1;fill-rule:nonzero;stroke:none"
             d="m 0,0 h -6.334 v 0.039 h -0.04 v 6.334 c 10e-4,1.756 1.424,3.179 3.179,3.179 1.756,0 3.179,-1.423 3.179,-3.179 V 6.357 H 0 C 1.755,6.357 3.179,4.934 3.179,3.179 3.179,1.423 1.755,0 0,0 m 20.385,0.669 c -1.033,1.033 -2.708,1.033 -3.741,0 C 16.54,0.565 16.45,0.453 16.367,0.338 16.235,0.313 16.101,0.292 15.962,0.275 L 15.961,0.273 C 14.125,0.046 11.723,0.478 9.334,1.597 8.1,2.175 7.005,2.873 6.094,3.625 l 3.155,7.311 2.519,5.84 c 0.955,-0.386 2.088,-0.192 2.862,0.582 1.033,1.033 1.033,2.708 0,3.741 -1.033,1.033 -2.708,1.033 -3.741,0 -0.846,-0.847 -0.998,-2.124 -0.456,-3.126 L 4.65,15.072 -2.062,11.707 c -1.01,1.027 -1.958,2.392 -2.703,3.989 -1.179,2.52 -1.597,5.053 -1.281,6.923 0.019,0.113 0.042,0.223 0.066,0.331 0.062,0.051 0.122,0.105 0.18,0.163 1.033,1.033 1.033,2.708 0,3.741 -1.033,1.033 -2.707,1.033 -3.74,0 -0.993,-0.993 -1.029,-2.576 -0.114,-3.615 0.003,-0.018 0.006,-0.035 0.009,-0.053 0.542,-3.581 -0.668,-8.396 -3.554,-12.902 -1.27,-1.984 -2.732,-3.699 -4.267,-5.082 3.034,-1.034 6.559,-3.31 9.777,-6.529 3.063,-3.063 5.273,-6.403 6.371,-9.334 1.334,1.426 2.952,2.78 4.808,3.968 4.679,2.996 9.689,4.186 13.308,3.482 1.039,-0.889 2.603,-0.844 3.587,0.139 1.033,1.033 1.033,2.708 0,3.741" /></g><g
           transform="translate(405.6911,262.1078)"
           id="g102"><path
             id="path104"
             style="fill:#54b5ff;fill-opacity:1;fill-rule:nonzero;stroke:none"
             d="m 0,0 -60.723,60.723 c -0.333,0.531 -0.729,1.034 -1.191,1.496 v 0 c -3.32,3.32 -8.704,3.32 -12.025,0 l -65.043,-65.043 c -3.32,-3.321 -3.32,-8.705 0,-12.025 v 0 c 3.321,-3.321 8.705,-3.321 12.026,0 l 35.833,35.833 c 0.02,-0.022 0.039,-0.043 0.06,-0.064 L -77.755,7.612 c 2.391,-2.391 6.267,-2.391 8.658,0 v 0 c 2.391,2.391 2.391,6.267 0,8.658 l -13.308,13.308 c -0.021,0.021 -0.042,0.04 -0.063,0.061 l 14.389,14.389 56.054,-56.053 c 3.315,-3.315 8.689,-3.315 12.004,0 L 0,-12.004 C 3.315,-8.689 3.315,-3.315 0,0" /></g></g></g></g></svg>
